# xmcd
#
# Track frame offsets: 
#        150
#        19887
#        39950
#        58238
#        75479
#        93054
#        112286
#        128626
#        148714
#        169334
#        187845
#        203654
#
# Disc length: 2953 seconds
#
# Revision: 2
# Processed by: cddbd v1.5.2PL0 Copyright (c) Steve Scherf et al.
# Submitted via: ExactAudioCopy v0.95a4
#
DISCID=9c0b870c
DTITLE=Rock and Rollinger - Rollst du noch oder Rockst du schon?
DYEAR=2009
DGENRE=Rock
TTITLE0=Die Schwabenhymne
TTITLE1=Der Baum
TTITLE2=Brudal verliebt
TTITLE3=Fahrrad
TTITLE4=Von dr Alb ra
TTITLE5=Früher
TTITLE6=Proll
TTITLE7=Sei Andersch
TTITLE8=Sommer auf dr Alb
TTITLE9=Metal King
TTITLE10=Sau Karle Sau
TTITLE11=Wenns Ärschle brummt
EXTD=Year: 2009\n\n\n\n\n\n                                           
EXTD=www.rockundrollinger.de
EXTT0=
EXTT1=
EXTT2=
EXTT3=
EXTT4=
EXTT5=
EXTT6=
EXTT7=
EXTT8=
EXTT9=
EXTT10=
EXTT11=
PLAYORDER=
